<svg xmlns="http://www.w3.org/2000/svg" viewBox="0 0 100 100">
  <defs>
    <linearGradient id="g" x1="0%" y1="0%" x2="100%" y2="100%">
      <stop offset="0%" stop-color="#1d4ed8"/>
      <stop offset="100%" stop-color="#06b6d4"/>
    </linearGradient>
  </defs>
  <rect width="100" height="100" rx="22" fill="url(#g)"/>
  <!-- El yazısı tarzı cursive D harfi -->
  <path d="M 28 24
           C 26 24, 24 26, 26 30
           C 30 40, 32 55, 28 72
           C 26 78, 32 82, 38 78
           C 55 70, 72 60, 74 42
           C 75 30, 65 22, 50 24
           C 42 25, 36 28, 32 32
           M 38 32
           C 50 30, 62 32, 64 44
           C 65 56, 54 64, 42 70"
        fill="none" stroke="#ffffff" stroke-width="5"
        stroke-linecap="round" stroke-linejoin="round"/>
  <!-- Cursive süs kuyruğu -->
  <path d="M 28 72 C 24 78, 20 82, 22 86"
        fill="none" stroke="#ffffff" stroke-width="4"
        stroke-linecap="round"/>
</svg>
